<svg xmlns="http://www.w3.org/2000/svg" viewBox="0 0 128 128" fill="none">
  <rect width="128" height="128" rx="32" fill="#09110D" />
  <path d="M28 92V36H60.5C70.8 36 79 38.5667 85.1 43.7C91.3667 48.6667 94.5 55.6 94.5 64.5C94.5 73.4 91.3667 80.4 85.1 85.5C79 89.8333 70.8 92 60.5 92H28ZM46.5 78.2H59C64.1667 78.2 68.1667 76.9667 71 74.5C73.8333 71.8667 75.25 68.5333 75.25 64.5C75.25 60.3 73.8333 56.9667 71 54.5C68.1667 51.8667 64.1667 50.55 59 50.55H46.5V78.2Z" fill="#EDF2EC" />
  <path d="M62 20L106 64L96.5 73.5L62 39L27.5 73.5L18 64L62 20Z" fill="#2B7A4D" />
</svg>
